<svg width="174" height="42" viewBox="0 0 174 42" fill="none" xmlns="http://www.w3.org/2000/svg">
<path d="M52.9001 19.6542C53.5798 18.3952 54.5037 17.4162 55.6746 16.7185C56.8455 16.0209 58.1481 15.6706 59.5846 15.6706C60.6459 15.6706 61.6939 15.902 62.7274 16.3642C63.7591 16.8264 64.5815 17.4417 65.1904 18.2084V10.3588H68.5837V32.195H65.1904V29.7459C64.64 30.5329 63.8786 31.1819 62.9037 31.694C61.9305 32.2049 60.8141 32.4606 59.555 32.4606C58.1382 32.4606 56.8455 32.1022 55.6746 31.3837C54.5037 30.6657 53.5798 29.6624 52.9001 28.3743C52.2228 27.0857 51.8823 25.6248 51.8823 23.9923C51.8823 22.3597 52.2228 20.9139 52.9001 19.6542ZM64.4974 21.1296C64.0351 20.3032 63.4303 19.674 62.6821 19.2419C61.9346 18.8087 61.1279 18.5918 60.2637 18.5918C59.3967 18.5918 58.5906 18.804 57.8442 19.2268C57.0961 19.6496 56.4912 20.2696 56.029 21.0861C55.5667 21.9021 55.3359 22.8712 55.3359 23.9923C55.3359 25.1133 55.5667 26.0969 56.029 26.943C56.4912 27.7886 57.1001 28.4329 57.8581 28.8754C58.6155 29.3179 59.4164 29.5395 60.2637 29.5395C61.1279 29.5395 61.9346 29.3225 62.6821 28.8899C63.4303 28.4573 64.0351 27.8228 64.4974 26.9871C64.9596 26.1508 65.1904 25.1719 65.1904 24.0508C65.1904 22.9292 64.9596 21.9566 64.4974 21.1296Z" fill="white"/>
<path d="M77.0738 31.4133C75.8345 30.7156 74.8596 29.7314 74.1509 28.4631C73.444 27.1941 73.0896 25.7234 73.0896 24.0514C73.0896 22.3991 73.4538 20.9336 74.1816 19.6548C74.9089 18.376 75.9029 17.3924 77.162 16.704C78.4211 16.0151 79.8269 15.6712 81.3817 15.6712C82.9348 15.6712 84.3418 16.0151 85.6008 16.704C86.8599 17.3924 87.8528 18.376 88.5812 19.6548C89.3096 20.9336 89.6732 22.3991 89.6732 24.0514C89.6732 25.7043 89.2997 27.1698 88.5516 28.448C87.804 29.7273 86.7857 30.7156 85.4976 31.4133C84.209 32.1121 82.7875 32.4612 81.2344 32.4612C79.6998 32.4612 78.312 32.1121 77.0738 31.4133ZM83.6684 28.9201C84.4247 28.5071 85.0406 27.8872 85.5127 27.0607C85.9847 26.2349 86.2202 25.2322 86.2202 24.0514C86.2202 22.8706 85.9946 21.8731 85.5423 21.056C85.0899 20.24 84.4891 19.6252 83.7427 19.2123C82.9951 18.7994 82.1884 18.5923 81.3226 18.5923C80.4561 18.5923 79.6546 18.7994 78.9169 19.2123C78.1804 19.6252 77.5946 20.24 77.162 21.056C76.7294 21.8731 76.5125 22.8706 76.5125 24.0514C76.5125 25.8028 76.9602 27.1547 77.855 28.1087C78.7499 29.0627 79.8762 29.54 81.2344 29.54C82.0985 29.54 82.911 29.333 83.6684 28.9201Z" fill="white"/>
<path d="M94.0745 19.6397C94.7536 18.3708 95.6932 17.3918 96.8937 16.7035C98.0924 16.0145 99.4704 15.6712 101.025 15.6712C102.991 15.6712 104.62 16.138 105.908 17.0723C107.196 18.0066 108.066 19.3399 108.52 21.071H104.89C104.595 20.2643 104.123 19.6351 103.473 19.1816C102.824 18.7304 102.008 18.503 101.025 18.503C99.6467 18.503 98.5506 18.9908 97.734 19.9639C96.9174 20.9376 96.5097 22.3005 96.5097 24.0508C96.5097 25.8023 96.9174 27.1692 97.734 28.1528C98.5506 29.137 99.6467 29.6282 101.025 29.6282C102.972 29.6282 104.26 28.7728 104.89 27.0607H108.52C108.047 28.713 107.162 30.0266 105.863 30.9998C104.565 31.9741 102.952 32.4606 101.025 32.4606C99.4704 32.4606 98.0924 32.1121 96.8937 31.4133C95.6932 30.715 94.7536 29.7314 94.0745 28.4625C93.3966 27.1936 93.0562 25.7234 93.0562 24.0508C93.0562 22.3788 93.3966 20.9087 94.0745 19.6397Z" fill="white"/>
<path d="M119.488 24.0806L126.983 32.1953H122.438L116.418 25.2017V32.1953H113.054V10.359H116.418V23.0478L122.319 15.9364H126.983L119.488 24.0806Z" fill="white"/>
<path d="M153.843 15.9364L148.798 32.1952H145.256L141.982 20.1851L138.706 32.1952H135.164L130.089 15.9364H133.512L136.905 29.0084L140.358 15.9364H143.87L147.175 28.9493L150.538 15.9364H153.843Z" fill="white"/>
<path d="M157.428 19.6542C158.106 18.3952 159.032 17.4162 160.202 16.7185C161.372 16.0209 162.666 15.6706 164.082 15.6706C165.361 15.6706 166.477 15.9217 167.432 16.4233C168.385 16.925 169.147 17.5502 169.719 18.2966V15.9362H173.112V32.195H169.719V29.7749C169.147 30.5428 168.37 31.1819 167.387 31.694C166.404 32.2049 165.282 32.4607 164.023 32.4607C162.627 32.4607 161.348 32.1023 160.187 31.3837C159.027 30.6657 158.106 29.6624 157.428 28.3743C156.749 27.0857 156.41 25.6248 156.41 23.9923C156.41 22.3597 156.749 20.9139 157.428 19.6542ZM169.025 21.1296C168.562 20.3032 167.957 19.674 167.21 19.2419C166.463 18.8087 165.656 18.5918 164.791 18.5918C163.925 18.5918 163.119 18.804 162.371 19.2268C161.623 19.6496 161.018 20.2696 160.556 21.0861C160.094 21.9021 159.862 22.8712 159.862 23.9923C159.862 25.1133 160.094 26.0969 160.556 26.943C161.018 27.7886 161.628 28.4329 162.386 28.8754C163.142 29.3179 163.945 29.5395 164.791 29.5395C165.656 29.5395 166.463 29.3226 167.21 28.8899C167.957 28.4573 168.562 27.8228 169.025 26.9871C169.488 26.1508 169.719 25.1719 169.719 24.0508C169.719 22.9292 169.488 21.9566 169.025 21.1296Z" fill="white"/>
<path d="M38.367 22.3655C38.4116 22.859 38.4342 23.3514 38.4342 23.838C38.4342 32.9594 31.0132 40.3804 21.8918 40.3804C12.771 40.3804 5.34993 32.9594 5.34993 23.838C5.34993 23.3514 5.37255 22.859 5.41721 22.3655H38.367ZM39.6707 20.8837H4.11348C3.95458 21.8453 3.86816 22.8318 3.86816 23.838C3.86816 33.7922 11.9376 41.8622 21.8918 41.8622C31.846 41.8622 39.916 33.7922 39.916 23.838C39.916 22.8318 39.8296 21.8453 39.6707 20.8837Z" fill="white"/>
<path d="M5.91368 15.5012C5.04608 17.1604 4.42902 18.971 4.11353 20.8843H39.6707C39.3552 18.971 38.7382 17.1604 37.8706 15.5012H5.91368Z" fill="#6ACCE0"/>
<path d="M40.1591 32.4943C38.2899 32.4943 36.3825 31.5861 34.5649 29.7917C34.4043 29.6322 34.1804 29.5366 33.9618 29.5511C33.8429 29.554 33.6173 29.5893 33.4375 29.7871C31.8554 31.5269 30.1225 32.4328 28.2858 32.481C25.8245 32.5505 23.7895 31.045 22.5095 29.7755C22.3547 29.6224 22.1476 29.5447 21.9302 29.547C21.8095 29.5505 21.5799 29.5858 21.3966 29.7871C19.8163 31.5252 18.0845 32.4316 16.2496 32.4804C13.812 32.5494 11.7602 31.0526 10.4814 29.7877C10.3237 29.6311 10.1114 29.5551 9.8887 29.5545C9.76633 29.5574 9.53319 29.5934 9.34703 29.7975C6.55226 32.8643 3.23263 33.3225 0 31.0873L1.21789 29.3249C3.55624 30.9418 5.69683 30.6234 7.76319 28.3546C8.2979 27.7677 9.0327 27.4331 9.83302 27.4122C10.6334 27.3954 11.4192 27.7016 11.9881 28.2641C12.97 29.235 14.4662 30.3705 16.1927 30.3386C17.4211 30.3056 18.639 29.6352 19.8116 28.3453C20.344 27.7596 21.0765 27.4261 21.8745 27.4052C22.6742 27.3797 23.4525 27.6935 24.018 28.2543C25.0022 29.2292 26.5245 30.3821 28.2301 30.3386C29.4602 30.3067 30.6781 29.6363 31.8519 28.3453C32.3814 27.7625 33.1104 27.4302 33.9044 27.4087C34.7134 27.3954 35.4975 27.7004 36.071 28.2671C38.3421 30.5103 40.5274 30.9342 42.567 29.5279L43.7832 31.2921C42.6181 32.0953 41.3973 32.4943 40.1591 32.4943Z" fill="#6ACCE0"/>
<path d="M25.1046 6.10084C25.8597 6.89594 26.326 7.96769 26.326 9.15078C26.326 11.5993 24.3409 13.5845 21.8917 13.5845C19.4432 13.5845 17.458 11.5993 17.458 9.15078C17.458 7.96769 17.9243 6.89594 18.6794 6.10084C13.12 7.10181 8.44795 10.654 5.91357 15.5012H37.8705C35.3361 10.654 30.664 7.10181 25.1046 6.10084Z" fill="white"/>
<path d="M22.3044 0.146507C22.1675 0.140709 22.0301 0.13781 21.892 0.13781C21.754 0.13781 21.6166 0.140709 21.4797 0.146507C14.5911 0.425453 10.6683 8.19213 14.3226 14.0386L21.892 26.1496L29.4615 14.0386C33.1158 8.19213 29.193 0.425453 22.3044 0.146507ZM21.892 13.1327C19.6819 13.1327 17.8904 11.3412 17.8904 9.13105C17.8904 6.92089 19.6819 5.12884 21.892 5.12884C24.1022 5.12884 25.8937 6.92089 25.8937 9.13105C25.8937 11.3412 24.1022 13.1327 21.892 13.1327Z" fill="#EA282C"/>
</svg>
